<?xml version="1.0" encoding="UTF-8"?>
<svg width="2409px" height="129px" viewBox="0 0 2409 129" version="1.1" xmlns="http://www.w3.org/2000/svg" xmlns:xlink="http://www.w3.org/1999/xlink">
    <!-- Generator: Sketch 51.3 (57544) - http://www.bohemiancoding.com/sketch -->
    <title>LAUREN WHITTINGHAM</title>
    <desc>Created with Sketch.</desc>
    <defs></defs>
    <g id="Page-2" stroke="#000000" stroke-width="1" fill="none" fill-rule="evenodd" fill-opacity="0">
        <path d="M1.41,125 L1.41,4.64 L30.65,4.64 L30.65,99.67 L77.23,99.67 L77.23,125 L1.41,125 Z M196.800001,125 L187.450001,101.37 L140.870001,101.37 L132.030001,125 L100.410001,125 L150.900001,4.64 L179.120001,4.64 L229.100001,125 L196.800001,125 Z M164.500001,36.77 L149.200001,78.08 L179.460001,78.08 L164.500001,36.77 Z M362.440002,79.61 C362.440002,86.8633696 361.221681,93.4649702 358.785002,99.415 C356.348323,105.36503 352.863358,110.464979 348.330002,114.715 C343.796646,118.965021 338.328367,122.279988 331.925002,124.66 C325.521636,127.040012 318.410041,128.23 310.590002,128.23 C302.656629,128.23 295.5167,127.040012 289.170002,124.66 C282.823303,122.279988 277.440024,118.965021 273.020002,114.715 C268.59998,110.464979 265.200014,105.36503 262.820002,99.415 C260.43999,93.4649702 259.250002,86.8633696 259.250002,79.61 L259.250002,4.64 L288.150002,4.64 L288.150002,77.23 C288.150002,80.5166831 288.574997,83.6333186 289.425002,86.58 C290.275006,89.5266814 291.578326,92.161655 293.335002,94.485 C295.091677,96.8083449 297.414987,98.6499932 300.305002,100.01 C303.195016,101.370007 306.679981,102.05 310.760002,102.05 C314.840022,102.05 318.324987,101.370007 321.215002,100.01 C324.105016,98.6499932 326.456659,96.8083449 328.270002,94.485 C330.083344,92.161655 331.386664,89.5266814 332.180002,86.58 C332.973339,83.6333186 333.370002,80.5166831 333.370002,77.23 L333.370002,4.64 L362.440002,4.64 L362.440002,79.61 Z M474.700003,125 L448.690003,77.23 L438.830003,77.23 L438.830003,125 L410.270003,125 L410.270003,4.64 L456.170003,4.64 C461.950031,4.64 467.588308,5.23499405 473.085003,6.425 C478.581697,7.61500595 483.511647,9.6266525 487.875003,12.46 C492.238358,15.2933475 495.723323,19.0333101 498.330003,23.68 C500.936682,28.3266899 502.240003,34.1066321 502.240003,41.02 C502.240003,49.1800408 500.030025,56.0366389 495.610003,61.59 C491.18998,67.1433611 485.070042,71.1099881 477.250003,73.49 L508.700003,125 L474.700003,125 Z M473.510003,41.53 C473.510003,38.6966525 472.915008,36.4016754 471.725003,34.645 C470.534997,32.8883245 469.005012,31.5283381 467.135003,30.565 C465.264993,29.6016618 463.168347,28.9500017 460.845003,28.61 C458.521658,28.2699983 456.283347,28.1 454.130003,28.1 L438.660003,28.1 L438.660003,56.15 L452.430003,56.15 C454.810014,56.15 457.246657,55.9516686 459.740003,55.555 C462.233348,55.1583313 464.499992,54.4500051 466.540003,53.43 C468.580013,52.4099949 470.251663,50.9366763 471.555003,49.01 C472.858342,47.0833237 473.510003,44.5900153 473.510003,41.53 Z M547.350003,125 L547.350003,4.64 L628.270003,4.64 L628.270003,29.29 L575.400003,29.29 L575.400003,51.9 L625.380003,51.9 L625.380003,75.19 L575.400003,75.19 L575.400003,100.18 L631.330003,100.18 L631.330003,125 L547.350003,125 Z M751.410004,125 L702.960004,46.29 L702.450004,46.29 L703.130004,125 L674.910004,125 L674.910004,4.64 L708.060004,4.64 L756.340004,83.18 L756.850004,83.18 L756.170004,4.64 L784.390004,4.64 L784.390004,125 L751.410004,125 Z M1025.91001,125 L997.180006,125 L973.380006,43.57 L972.870006,43.57 L949.070006,125 L920.170006,125 L886.000006,4.64 L917.280006,4.64 L936.320006,84.71 L936.830006,84.71 L958.250006,4.64 L988.510006,4.64 L1010.10001,84.71 L1010.61001,84.71 L1029.99001,4.64 L1060.25001,4.64 L1025.91001,125 Z M1173.02001,125 L1173.02001,74.68 L1126.10001,74.68 L1126.10001,125 L1097.03001,125 L1097.03001,4.64 L1126.10001,4.64 L1126.10001,50.2 L1173.02001,50.2 L1173.02001,4.64 L1202.09001,4.64 L1202.09001,125 L1173.02001,125 Z M1251.28001,125 L1251.28001,4.64 L1280.52001,4.64 L1280.52001,125 L1251.28001,125 Z M1381.22001,29.46 L1381.22001,125 L1352.15001,125 L1352.15001,29.46 L1318.15001,29.46 L1318.15001,4.64 L1415.22001,4.64 L1415.22001,29.46 L1381.22001,29.46 Z M1504.36001,29.46 L1504.36001,125 L1475.29001,125 L1475.29001,29.46 L1441.29001,29.46 L1441.29001,4.64 L1538.36001,4.64 L1538.36001,29.46 L1504.36001,29.46 Z M1575.99001,125 L1575.99001,4.64 L1605.23001,4.64 L1605.23001,125 L1575.99001,125 Z M1730.92001,125 L1682.47001,46.29 L1681.96001,46.29 L1682.64001,125 L1654.42001,125 L1654.42001,4.64 L1687.57001,4.64 L1735.85001,83.18 L1736.36001,83.18 L1735.68001,4.64 L1763.90001,4.64 L1763.90001,125 L1730.92001,125 Z M1920.02001,117.69 C1914.12665,120.750015 1907.24172,123.243324 1899.36501,125.17 C1891.48831,127.096676 1882.90339,128.06 1873.61001,128.06 C1863.97663,128.06 1855.10839,126.530015 1847.00501,123.47 C1838.90164,120.409985 1831.93171,116.103361 1826.09501,110.55 C1820.25832,104.996639 1815.69669,98.3383721 1812.41001,90.575 C1809.12333,82.8116279 1807.48001,74.1700476 1807.48001,64.65 C1807.48001,55.0166185 1809.15166,46.2900391 1812.49501,38.47 C1815.83836,30.6499609 1820.45665,23.9916942 1826.35001,18.495 C1832.24337,12.9983059 1839.15664,8.7766814 1847.09001,5.83 C1855.02338,2.8833186 1863.57997,1.41 1872.76001,1.41 C1882.28006,1.41 1891.11997,2.85498555 1899.28001,5.745 C1907.44005,8.63501445 1914.06999,12.5166423 1919.17001,17.39 L1900.81001,38.3 C1897.97666,35.0133169 1894.2367,32.3216771 1889.59001,30.225 C1884.94332,28.1283228 1879.67337,27.08 1873.78001,27.08 C1868.67999,27.08 1863.9767,28.0149906 1859.67001,29.885 C1855.36332,31.7550093 1851.62336,34.36165 1848.45001,37.705 C1845.27666,41.04835 1842.81169,45.014977 1841.05501,49.605 C1839.29834,54.1950229 1838.42001,59.2099728 1838.42001,64.65 C1838.42001,70.2033611 1839.21334,75.3033101 1840.80001,79.95 C1842.38669,84.5966899 1844.73833,88.59165 1847.85501,91.935 C1850.97169,95.2783501 1854.82499,97.8849907 1859.41501,99.755 C1864.00503,101.625009 1869.24665,102.56 1875.14001,102.56 C1878.54003,102.56 1881.77,102.305003 1884.83001,101.795 C1887.89003,101.284997 1890.72333,100.463339 1893.33001,99.33 L1893.33001,77.4 L1870.38001,77.4 L1870.38001,53.94 L1920.02001,53.94 L1920.02001,117.69 Z M2044.18001,125 L2044.18001,74.68 L1997.26001,74.68 L1997.26001,125 L1968.19001,125 L1968.19001,4.64 L1997.26001,4.64 L1997.26001,50.2 L2044.18001,50.2 L2044.18001,4.64 L2073.25001,4.64 L2073.25001,125 L2044.18001,125 Z M2204.04001,125 L2194.69001,101.37 L2148.11001,101.37 L2139.27001,125 L2107.65001,125 L2158.14001,4.64 L2186.36001,4.64 L2236.34001,125 L2204.04001,125 Z M2171.74001,36.77 L2156.44001,78.08 L2186.70001,78.08 L2171.74001,36.77 Z M2379.88001,125 L2380.56001,39.83 L2380.05001,39.83 L2348.77001,125 L2328.37001,125 L2297.94001,39.83 L2297.43001,39.83 L2298.11001,125 L2270.74001,125 L2270.74001,4.64 L2312.05001,4.64 L2339.42001,81.82 L2340.10001,81.82 L2366.28001,4.64 L2408.27001,4.64 L2408.27001,125 L2379.88001,125 Z" id="LAUREN-WHITTINGHAM" stroke="#979797" fill="#FFFFFF"></path>
    </g>
</svg>
